<svg width="15" height="15" viewBox="0 0 15 15" fill="none" xmlns="http://www.w3.org/2000/svg">
<path d="M7.49832 0C3.37374 0 0 3.37374 0 7.50168C0 11.2189 2.70034 14.2828 6.26599 14.9226L6.31313 14.8754H6.2963V9.60943H4.42087V7.49832H6.2963V5.85859C6.2963 3.98316 7.49832 2.93603 9.21885 2.93603C9.75084 2.93603 10.3434 3.01347 10.8754 3.09091V4.99663H9.90572C9 4.99663 8.78114 5.45118 8.78114 6.04377V7.51515H10.7643L10.4209 9.60943H8.76431V14.8923C8.73401 14.8923 8.71717 14.8923 8.68687 14.9091L8.73401 14.9394C12.2963 14.2997 15 11.2357 15 7.51515C15 3.39057 11.6263 0 7.49832 0Z" fill="#4068B2"/>
</svg>
