<svg width="42" height="22" viewBox="0 0 42 22" fill="none" xmlns="http://www.w3.org/2000/svg">
<path d="M35.9752 0.905922C35.9457 0.993592 35.9163 1.05204 35.9163 1.13971C34.7675 5.69857 33.6483 10.2282 32.4996 14.7871C32.4701 14.904 32.4112 15.0209 32.3523 15.1378C32.2934 15.0209 32.2345 14.9332 32.205 14.8163C31.2625 11.3095 30.3494 7.83189 29.4069 4.32507C29.3774 4.2374 29.348 4.14973 29.3185 4.06206C28.5822 4.76342 27.6985 5.14333 26.6971 5.14333C25.6956 5.14333 24.812 4.76342 24.0757 4.06206C24.0462 4.14973 24.0167 4.2374 24.0167 4.29585C23.1037 7.74422 22.1906 11.1634 21.2775 14.6117C21.2481 14.7579 21.2186 14.904 21.1597 15.0501C21.1302 15.1085 21.1008 15.1378 21.0713 15.167C21.0419 15.1085 20.983 15.0793 20.9535 15.0209C20.9241 14.9916 20.9535 14.9624 20.9241 14.9332C19.7753 10.3451 18.6266 5.75702 17.4779 1.13971C17.4485 0.964369 17.3601 0.905922 17.1834 0.905922C15.9757 0.905922 14.7976 0.905922 13.59 0.905922C13.1187 0.905922 12.6474 0.905922 12.1467 0.905922C12.1762 0.993592 12.1762 1.08126 12.2056 1.13971C14.1496 7.89034 16.0936 14.6702 18.0375 21.4208C18.0965 21.5962 18.1554 21.6254 18.3321 21.6254C19.9521 21.6254 21.572 21.6254 23.1626 21.6254C23.2215 21.6254 23.2804 21.6254 23.3688 21.6254C24.488 17.7679 25.5778 13.9104 26.6971 9.99443C26.7265 10.0821 26.7265 10.0821 26.7265 10.1113C27.8163 13.8519 28.8767 17.5925 29.937 21.3331C29.996 21.5377 30.0843 21.6254 30.2905 21.6254C31.8516 21.6254 33.4126 21.6254 34.9737 21.6254C35.2094 21.6254 35.2683 21.5669 35.3272 21.3331C37.1239 15.0501 38.9206 8.79626 40.7173 2.51321C40.8646 1.98719 41.0118 1.43194 41.1886 0.905922C39.4508 0.905922 37.713 0.905922 35.9752 0.905922Z" fill="#252525"/>
<path d="M11.322 0.8767C11.0863 0.8767 10.8802 0.8767 10.7034 0.8767C10.4973 0.847477 10.3794 0.935148 10.2616 1.11049C9.46636 2.48399 8.31764 3.41914 6.84493 3.94517C6.63875 4.00361 6.57985 4.09128 6.57985 4.29585C6.57985 7.62733 6.57985 10.988 6.57985 14.3195C6.57985 14.7286 6.55039 15.167 6.46203 15.5761C6.2853 16.482 5.78458 17.0957 4.8715 17.3588C4.13515 17.5633 3.42824 17.4464 2.80971 17.0373C2.33844 16.7451 1.89663 16.4236 1.45481 16.1021C0.983544 17.3587 0.482823 18.6154 0.0115551 19.872C-0.0178991 19.9304 0.0115548 20.0473 0.0704632 20.0765C0.865727 20.8071 1.74935 21.3331 2.78025 21.6546C4.4886 22.1806 6.2264 22.093 7.87583 21.4793C9.31909 20.9532 10.35 19.9304 10.9096 18.4692C11.2631 17.5633 11.3514 16.5989 11.3514 15.6346C11.3514 10.8127 11.3514 5.99081 11.3514 1.13971C11.322 1.08126 11.322 0.993594 11.322 0.8767Z" fill="#252525"/>
<path d="M26.6676 3.01002C27.5218 3.01002 28.1992 2.3671 28.1992 1.51962C28.1992 0.67214 27.5218 0 26.6676 0C25.8134 0 25.1654 0.67214 25.1654 1.51962C25.1654 2.3671 25.8134 2.9808 26.6676 3.01002Z" fill="#252525"/>
</svg>
