<svg width="15" height="15" viewBox="0 0 15 15" fill="none" xmlns="http://www.w3.org/2000/svg">
<path d="M7.49438 15C11.6365 15 14.9944 11.6421 14.9944 7.5C14.9944 3.35786 11.6365 0 7.49438 0C3.35225 0 -0.00561523 3.35786 -0.00561523 7.5C-0.00561523 11.6421 3.35225 15 7.49438 15Z" fill="#2D65B0"/>
<path fill-rule="evenodd" clip-rule="evenodd" d="M10.9818 8.25403C10.9818 6.86713 10.2446 6.22418 9.25828 6.22418C8.75334 6.22418 8.41672 6.40259 8.19791 6.61467C8.09356 6.71902 7.91515 6.64496 7.91515 6.50021C7.91515 6.40596 7.84109 6.3319 7.74683 6.3319H6.58884C6.49459 6.3319 6.42053 6.40596 6.42053 6.50021C6.43063 7.26772 6.42053 9.96072 6.42053 10.6643C6.42053 10.7585 6.49459 10.8326 6.58884 10.8326H7.75693C7.85119 10.8326 7.92524 10.7585 7.92524 10.6643V8.32135C7.92524 8.18334 7.93534 8.04869 7.9791 7.95443C8.08346 7.68177 8.33593 7.4091 8.74661 7.4091C9.28184 7.4091 9.50401 7.81978 9.50401 8.42907V10.6777C9.50401 10.772 9.57807 10.846 9.67233 10.846H10.8303C10.9246 10.846 10.9986 10.772 10.9986 10.6777H10.9885V8.25403H10.9818Z" fill="white"/>
<path fill-rule="evenodd" clip-rule="evenodd" d="M4.8519 4.16406C4.33687 4.16406 4.00024 4.50069 4.00024 4.94167C4.00024 5.37255 4.32677 5.71927 4.84181 5.71927C5.36694 5.71927 5.69347 5.37255 5.69347 4.94167C5.68337 4.50069 5.36694 4.16406 4.8519 4.16406Z" fill="white"/>
<path fill-rule="evenodd" clip-rule="evenodd" d="M5.43088 6.32855H4.26279C4.16854 6.32855 4.09448 6.40261 4.09448 6.49686V10.671C4.09448 10.7653 4.16854 10.8393 4.26279 10.8393H5.43088C5.52514 10.8393 5.59919 10.7653 5.59919 10.671V6.49686C5.59919 6.40261 5.52514 6.32855 5.43088 6.32855Z" fill="white"/>
</svg>
